%TF.GenerationSoftware,KiCad,Pcbnew,8.0.7*%
%TF.CreationDate,2025-07-24T12:10:59+02:00*%
%TF.ProjectId,Soundwalk,536f756e-6477-4616-9c6b-2e6b69636164,rev?*%
%TF.SameCoordinates,Original*%
%TF.FileFunction,Soldermask,Top*%
%TF.FilePolarity,Negative*%
%FSLAX46Y46*%
G04 Gerber Fmt 4.6, Leading zero omitted, Abs format (unit mm)*
G04 Created by KiCad (PCBNEW 8.0.7) date 2025-07-24 12:10:59*
%MOMM*%
%LPD*%
G01*
G04 APERTURE LIST*
G04 Aperture macros list*
%AMRoundRect*
0 Rectangle with rounded corners*
0 $1 Rounding radius*
0 $2 $3 $4 $5 $6 $7 $8 $9 X,Y pos of 4 corners*
0 Add a 4 corners polygon primitive as box body*
4,1,4,$2,$3,$4,$5,$6,$7,$8,$9,$2,$3,0*
0 Add four circle primitives for the rounded corners*
1,1,$1+$1,$2,$3*
1,1,$1+$1,$4,$5*
1,1,$1+$1,$6,$7*
1,1,$1+$1,$8,$9*
0 Add four rect primitives between the rounded corners*
20,1,$1+$1,$2,$3,$4,$5,0*
20,1,$1+$1,$4,$5,$6,$7,0*
20,1,$1+$1,$6,$7,$8,$9,0*
20,1,$1+$1,$8,$9,$2,$3,0*%
G04 Aperture macros list end*
%ADD10C,0.387500*%
%ADD11C,0.010000*%
%ADD12RoundRect,0.200000X0.275000X-0.200000X0.275000X0.200000X-0.275000X0.200000X-0.275000X-0.200000X0*%
%ADD13RoundRect,0.237500X0.237500X-0.250000X0.237500X0.250000X-0.237500X0.250000X-0.237500X-0.250000X0*%
%ADD14RoundRect,0.250000X-0.625000X0.400000X-0.625000X-0.400000X0.625000X-0.400000X0.625000X0.400000X0*%
%ADD15RoundRect,0.250000X0.650000X-0.412500X0.650000X0.412500X-0.650000X0.412500X-0.650000X-0.412500X0*%
%ADD16RoundRect,0.250000X1.250000X0.550000X-1.250000X0.550000X-1.250000X-0.550000X1.250000X-0.550000X0*%
%ADD17RoundRect,0.250000X-2.050000X-0.300000X2.050000X-0.300000X2.050000X0.300000X-2.050000X0.300000X0*%
%ADD18RoundRect,0.250002X-4.449998X-5.149998X4.449998X-5.149998X4.449998X5.149998X-4.449998X5.149998X0*%
%ADD19R,1.700000X1.700000*%
%ADD20O,1.700000X1.700000*%
%ADD21R,0.900000X0.600000*%
%ADD22RoundRect,0.237500X0.250000X0.237500X-0.250000X0.237500X-0.250000X-0.237500X0.250000X-0.237500X0*%
%ADD23RoundRect,0.237500X-0.237500X0.250000X-0.237500X-0.250000X0.237500X-0.250000X0.237500X0.250000X0*%
%ADD24RoundRect,0.250000X0.475000X-0.337500X0.475000X0.337500X-0.475000X0.337500X-0.475000X-0.337500X0*%
%ADD25RoundRect,0.200000X-0.200000X-0.275000X0.200000X-0.275000X0.200000X0.275000X-0.200000X0.275000X0*%
%ADD26RoundRect,0.249999X1.075001X-0.450001X1.075001X0.450001X-1.075001X0.450001X-1.075001X-0.450001X0*%
%ADD27RoundRect,0.150000X-0.150000X0.587500X-0.150000X-0.587500X0.150000X-0.587500X0.150000X0.587500X0*%
%ADD28RoundRect,0.250000X-0.650000X1.500000X-0.650000X-1.500000X0.650000X-1.500000X0.650000X1.500000X0*%
%ADD29RoundRect,0.150000X0.150000X-0.512500X0.150000X0.512500X-0.150000X0.512500X-0.150000X-0.512500X0*%
%ADD30RoundRect,0.250000X0.625000X-0.400000X0.625000X0.400000X-0.625000X0.400000X-0.625000X-0.400000X0*%
%ADD31RoundRect,0.150000X-0.587500X-0.150000X0.587500X-0.150000X0.587500X0.150000X-0.587500X0.150000X0*%
%ADD32R,0.558800X0.950500*%
%ADD33RoundRect,0.250000X-0.250000X-0.475000X0.250000X-0.475000X0.250000X0.475000X-0.250000X0.475000X0*%
%ADD34RoundRect,0.140000X0.170000X-0.140000X0.170000X0.140000X-0.170000X0.140000X-0.170000X-0.140000X0*%
%ADD35RoundRect,0.250000X0.325000X1.100000X-0.325000X1.100000X-0.325000X-1.100000X0.325000X-1.100000X0*%
%ADD36RoundRect,0.250000X0.550000X-1.500000X0.550000X1.500000X-0.550000X1.500000X-0.550000X-1.500000X0*%
%ADD37RoundRect,0.250000X0.625000X-0.312500X0.625000X0.312500X-0.625000X0.312500X-0.625000X-0.312500X0*%
%ADD38RoundRect,0.250000X1.100000X-0.412500X1.100000X0.412500X-1.100000X0.412500X-1.100000X-0.412500X0*%
%ADD39RoundRect,0.250000X-0.475000X0.250000X-0.475000X-0.250000X0.475000X-0.250000X0.475000X0.250000X0*%
%ADD40RoundRect,0.375000X0.375000X-0.625000X0.375000X0.625000X-0.375000X0.625000X-0.375000X-0.625000X0*%
%ADD41RoundRect,0.500000X1.400000X-0.500000X1.400000X0.500000X-1.400000X0.500000X-1.400000X-0.500000X0*%
%ADD42RoundRect,0.250000X-1.000000X-0.650000X1.000000X-0.650000X1.000000X0.650000X-1.000000X0.650000X0*%
%ADD43RoundRect,0.250000X0.600000X0.750000X-0.600000X0.750000X-0.600000X-0.750000X0.600000X-0.750000X0*%
%ADD44O,1.700000X2.000000*%
%ADD45RoundRect,0.250000X-1.100000X0.412500X-1.100000X-0.412500X1.100000X-0.412500X1.100000X0.412500X0*%
%ADD46RoundRect,0.250000X0.412500X1.100000X-0.412500X1.100000X-0.412500X-1.100000X0.412500X-1.100000X0*%
%ADD47RoundRect,0.250000X-0.450000X0.262500X-0.450000X-0.262500X0.450000X-0.262500X0.450000X0.262500X0*%
%ADD48C,0.800000*%
%ADD49C,6.000000*%
%ADD50RoundRect,0.250001X0.624999X-0.462499X0.624999X0.462499X-0.624999X0.462499X-0.624999X-0.462499X0*%
%ADD51RoundRect,0.200000X-0.275000X0.200000X-0.275000X-0.200000X0.275000X-0.200000X0.275000X0.200000X0*%
%ADD52RoundRect,0.155000X-0.155000X0.212500X-0.155000X-0.212500X0.155000X-0.212500X0.155000X0.212500X0*%
%ADD53RoundRect,0.250000X2.050000X0.300000X-2.050000X0.300000X-2.050000X-0.300000X2.050000X-0.300000X0*%
%ADD54RoundRect,0.250002X4.449998X5.149998X-4.449998X5.149998X-4.449998X-5.149998X4.449998X-5.149998X0*%
%ADD55RoundRect,0.250000X-0.412500X-0.650000X0.412500X-0.650000X0.412500X0.650000X-0.412500X0.650000X0*%
%ADD56RoundRect,0.250000X-0.787500X-0.925000X0.787500X-0.925000X0.787500X0.925000X-0.787500X0.925000X0*%
%ADD57RoundRect,0.150000X-0.150000X0.825000X-0.150000X-0.825000X0.150000X-0.825000X0.150000X0.825000X0*%
%ADD58R,3.000000X2.290000*%
%ADD59O,5.204000X2.704000*%
%ADD60O,4.704000X2.454000*%
%ADD61O,2.454000X4.704000*%
%ADD62O,1.452400X3.352400*%
%ADD63O,1.452400X2.652400*%
%ADD64RoundRect,0.237500X-0.300000X-0.237500X0.300000X-0.237500X0.300000X0.237500X-0.300000X0.237500X0*%
%ADD65RoundRect,0.150000X-0.750000X-0.150000X0.750000X-0.150000X0.750000X0.150000X-0.750000X0.150000X0*%
%ADD66RoundRect,0.250001X-0.462499X-0.624999X0.462499X-0.624999X0.462499X0.624999X-0.462499X0.624999X0*%
%ADD67RoundRect,0.250000X-0.475000X0.337500X-0.475000X-0.337500X0.475000X-0.337500X0.475000X0.337500X0*%
%ADD68RoundRect,0.237500X-0.250000X-0.237500X0.250000X-0.237500X0.250000X0.237500X-0.250000X0.237500X0*%
%ADD69C,1.800000*%
%ADD70R,1.800000X1.800000*%
%ADD71R,1.500000X0.900000*%
%ADD72R,0.900000X1.500000*%
%ADD73R,0.900000X0.900000*%
%ADD74C,0.600000*%
%ADD75RoundRect,0.250000X-0.400000X-0.625000X0.400000X-0.625000X0.400000X0.625000X-0.400000X0.625000X0*%
%ADD76RoundRect,0.237500X0.300000X0.237500X-0.300000X0.237500X-0.300000X-0.237500X0.300000X-0.237500X0*%
%ADD77RoundRect,0.250000X-1.250000X-0.550000X1.250000X-0.550000X1.250000X0.550000X-1.250000X0.550000X0*%
%ADD78RoundRect,0.150000X-0.675000X-0.150000X0.675000X-0.150000X0.675000X0.150000X-0.675000X0.150000X0*%
%ADD79RoundRect,0.150000X0.587500X0.150000X-0.587500X0.150000X-0.587500X-0.150000X0.587500X-0.150000X0*%
%ADD80RoundRect,0.150000X0.150000X-0.587500X0.150000X0.587500X-0.150000X0.587500X-0.150000X-0.587500X0*%
%ADD81R,0.400000X1.200000*%
%ADD82RoundRect,0.250000X-0.337500X-0.475000X0.337500X-0.475000X0.337500X0.475000X-0.337500X0.475000X0*%
%ADD83RoundRect,0.250000X-1.000000X1.950000X-1.000000X-1.950000X1.000000X-1.950000X1.000000X1.950000X0*%
%ADD84RoundRect,0.250000X-0.300000X2.050000X-0.300000X-2.050000X0.300000X-2.050000X0.300000X2.050000X0*%
%ADD85RoundRect,0.250002X-5.149998X4.449998X-5.149998X-4.449998X5.149998X-4.449998X5.149998X4.449998X0*%
%ADD86RoundRect,0.250000X1.950000X1.000000X-1.950000X1.000000X-1.950000X-1.000000X1.950000X-1.000000X0*%
%ADD87RoundRect,0.155000X0.212500X0.155000X-0.212500X0.155000X-0.212500X-0.155000X0.212500X-0.155000X0*%
%ADD88R,2.460000X2.310000*%
%ADD89RoundRect,0.100000X-0.687500X-0.100000X0.687500X-0.100000X0.687500X0.100000X-0.687500X0.100000X0*%
%ADD90R,1.500000X3.000000*%
%ADD91O,1.500000X3.000000*%
%ADD92RoundRect,0.250000X0.400000X0.625000X-0.400000X0.625000X-0.400000X-0.625000X0.400000X-0.625000X0*%
%ADD93RoundRect,0.250000X0.350000X-0.275000X0.350000X0.275000X-0.350000X0.275000X-0.350000X-0.275000X0*%
%ADD94RoundRect,0.650000X-0.650000X-0.950000X0.650000X-0.950000X0.650000X0.950000X-0.650000X0.950000X0*%
G04 APERTURE END LIST*
D10*
%TO.C,U1*%
X187352750Y-150034000D02*
G75*
G02*
X186965250Y-150034000I-193750J0D01*
G01*
X186965250Y-150034000D02*
G75*
G02*
X187352750Y-150034000I193750J0D01*
G01*
X187352750Y-151384000D02*
G75*
G02*
X186965250Y-151384000I-193750J0D01*
G01*
X186965250Y-151384000D02*
G75*
G02*
X187352750Y-151384000I193750J0D01*
G01*
X188202750Y-150034000D02*
G75*
G02*
X187815250Y-150034000I-193750J0D01*
G01*
X187815250Y-150034000D02*
G75*
G02*
X188202750Y-150034000I193750J0D01*
G01*
X188202750Y-151384000D02*
G75*
G02*
X187815250Y-151384000I-193750J0D01*
G01*
X187815250Y-151384000D02*
G75*
G02*
X188202750Y-151384000I193750J0D01*
G01*
X189052750Y-150034000D02*
G75*
G02*
X188665250Y-150034000I-193750J0D01*
G01*
X188665250Y-150034000D02*
G75*
G02*
X189052750Y-150034000I193750J0D01*
G01*
X189052750Y-151384000D02*
G75*
G02*
X188665250Y-151384000I-193750J0D01*
G01*
X188665250Y-151384000D02*
G75*
G02*
X189052750Y-151384000I193750J0D01*
G01*
X189902750Y-150034000D02*
G75*
G02*
X189515250Y-150034000I-193750J0D01*
G01*
X189515250Y-150034000D02*
G75*
G02*
X189902750Y-150034000I193750J0D01*
G01*
X189902750Y-151384000D02*
G75*
G02*
X189515250Y-151384000I-193750J0D01*
G01*
X189515250Y-151384000D02*
G75*
G02*
X189902750Y-151384000I193750J0D01*
G01*
D11*
X185525000Y-149652000D02*
X185589000Y-149669000D01*
X185649000Y-149696000D01*
X185704000Y-149734000D01*
X185751000Y-149780000D01*
X185790000Y-149833000D01*
X185820000Y-149893000D01*
X185839000Y-149956000D01*
X185846000Y-150022000D01*
X185843000Y-150088000D01*
X185828000Y-150152000D01*
X185802000Y-150214000D01*
X185767000Y-150269000D01*
X185722000Y-150318000D01*
X185673000Y-150357000D01*
X185673000Y-151061000D01*
X185722000Y-151100000D01*
X185767000Y-151149000D01*
X185802000Y-151204000D01*
X185828000Y-151266000D01*
X185843000Y-151330000D01*
X185846000Y-151396000D01*
X185839000Y-151462000D01*
X185820000Y-151525000D01*
X185790000Y-151585000D01*
X185751000Y-151638000D01*
X185704000Y-151684000D01*
X185649000Y-151722000D01*
X185589000Y-151749000D01*
X185525000Y-151766000D01*
X185459000Y-151772000D01*
X185393000Y-151766000D01*
X185329000Y-151749000D01*
X185269000Y-151722000D01*
X185214000Y-151684000D01*
X185167000Y-151638000D01*
X185128000Y-151585000D01*
X185098000Y-151525000D01*
X185079000Y-151462000D01*
X185072000Y-151396000D01*
X185075000Y-151330000D01*
X185090000Y-151266000D01*
X185116000Y-151204000D01*
X185151000Y-151149000D01*
X185196000Y-151100000D01*
X185246000Y-151061000D01*
X185245500Y-150357380D01*
X185246000Y-150357000D01*
X185196000Y-150318000D01*
X185151000Y-150269000D01*
X185116000Y-150214000D01*
X185090000Y-150152000D01*
X185075000Y-150088000D01*
X185072000Y-150022000D01*
X185079000Y-149956000D01*
X185098000Y-149893000D01*
X185128000Y-149833000D01*
X185167000Y-149780000D01*
X185214000Y-149734000D01*
X185269000Y-149696000D01*
X185329000Y-149669000D01*
X185393000Y-149652000D01*
X185459000Y-149646000D01*
X185525000Y-149652000D01*
G36*
X185525000Y-149652000D02*
G01*
X185589000Y-149669000D01*
X185649000Y-149696000D01*
X185704000Y-149734000D01*
X185751000Y-149780000D01*
X185790000Y-149833000D01*
X185820000Y-149893000D01*
X185839000Y-149956000D01*
X185846000Y-150022000D01*
X185843000Y-150088000D01*
X185828000Y-150152000D01*
X185802000Y-150214000D01*
X185767000Y-150269000D01*
X185722000Y-150318000D01*
X185673000Y-150357000D01*
X185673000Y-151061000D01*
X185722000Y-151100000D01*
X185767000Y-151149000D01*
X185802000Y-151204000D01*
X185828000Y-151266000D01*
X185843000Y-151330000D01*
X185846000Y-151396000D01*
X185839000Y-151462000D01*
X185820000Y-151525000D01*
X185790000Y-151585000D01*
X185751000Y-151638000D01*
X185704000Y-151684000D01*
X185649000Y-151722000D01*
X185589000Y-151749000D01*
X185525000Y-151766000D01*
X185459000Y-151772000D01*
X185393000Y-151766000D01*
X185329000Y-151749000D01*
X185269000Y-151722000D01*
X185214000Y-151684000D01*
X185167000Y-151638000D01*
X185128000Y-151585000D01*
X185098000Y-151525000D01*
X185079000Y-151462000D01*
X185072000Y-151396000D01*
X185075000Y-151330000D01*
X185090000Y-151266000D01*
X185116000Y-151204000D01*
X185151000Y-151149000D01*
X185196000Y-151100000D01*
X185246000Y-151061000D01*
X185245500Y-150357380D01*
X185246000Y-150357000D01*
X185196000Y-150318000D01*
X185151000Y-150269000D01*
X185116000Y-150214000D01*
X185090000Y-150152000D01*
X185075000Y-150088000D01*
X185072000Y-150022000D01*
X185079000Y-149956000D01*
X185098000Y-149893000D01*
X185128000Y-149833000D01*
X185167000Y-149780000D01*
X185214000Y-149734000D01*
X185269000Y-149696000D01*
X185329000Y-149669000D01*
X185393000Y-149652000D01*
X185459000Y-149646000D01*
X185525000Y-149652000D01*
G37*
X186375000Y-149652000D02*
X186439000Y-149669000D01*
X186499000Y-149696000D01*
X186554000Y-149734000D01*
X186601000Y-149780000D01*
X186640000Y-149833000D01*
X186670000Y-149893000D01*
X186689000Y-149956000D01*
X186696000Y-150022000D01*
X186693000Y-150088000D01*
X186678000Y-150152000D01*
X186652000Y-150214000D01*
X186617000Y-150269000D01*
X186572000Y-150318000D01*
X186523000Y-150357000D01*
X186523000Y-151061000D01*
X186522500Y-151060620D01*
X186572000Y-151100000D01*
X186617000Y-151149000D01*
X186652000Y-151204000D01*
X186678000Y-151266000D01*
X186693000Y-151330000D01*
X186696000Y-151396000D01*
X186689000Y-151462000D01*
X186670000Y-151525000D01*
X186640000Y-151585000D01*
X186601000Y-151638000D01*
X186554000Y-151684000D01*
X186499000Y-151722000D01*
X186439000Y-151749000D01*
X186375000Y-151766000D01*
X186309000Y-151772000D01*
X186243000Y-151766000D01*
X186179000Y-151749000D01*
X186119000Y-151722000D01*
X186064000Y-151684000D01*
X186017000Y-151638000D01*
X185978000Y-151585000D01*
X185948000Y-151525000D01*
X185929000Y-151462000D01*
X185922000Y-151396000D01*
X185925000Y-151330000D01*
X185940000Y-151266000D01*
X185966000Y-151204000D01*
X186001000Y-151149000D01*
X186046000Y-151100000D01*
X186096000Y-151061000D01*
X186096000Y-150357000D01*
X186046000Y-150318000D01*
X186001000Y-150269000D01*
X185966000Y-150214000D01*
X185940000Y-150152000D01*
X185925000Y-150088000D01*
X185922000Y-150022000D01*
X185929000Y-149956000D01*
X185948000Y-149893000D01*
X185978000Y-149833000D01*
X186017000Y-149780000D01*
X186064000Y-149734000D01*
X186119000Y-149696000D01*
X186179000Y-149669000D01*
X186243000Y-149652000D01*
X186309000Y-149646000D01*
X186375000Y-149652000D01*
G36*
X186375000Y-149652000D02*
G01*
X186439000Y-149669000D01*
X186499000Y-149696000D01*
X186554000Y-149734000D01*
X186601000Y-149780000D01*
X186640000Y-149833000D01*
X186670000Y-149893000D01*
X186689000Y-149956000D01*
X186696000Y-150022000D01*
X186693000Y-150088000D01*
X186678000Y-150152000D01*
X186652000Y-150214000D01*
X186617000Y-150269000D01*
X186572000Y-150318000D01*
X186523000Y-150357000D01*
X186523000Y-151061000D01*
X186522500Y-151060620D01*
X186572000Y-151100000D01*
X186617000Y-151149000D01*
X186652000Y-151204000D01*
X186678000Y-151266000D01*
X186693000Y-151330000D01*
X186696000Y-151396000D01*
X186689000Y-151462000D01*
X186670000Y-151525000D01*
X186640000Y-151585000D01*
X186601000Y-151638000D01*
X186554000Y-151684000D01*
X186499000Y-151722000D01*
X186439000Y-151749000D01*
X186375000Y-151766000D01*
X186309000Y-151772000D01*
X186243000Y-151766000D01*
X186179000Y-151749000D01*
X186119000Y-151722000D01*
X186064000Y-151684000D01*
X186017000Y-151638000D01*
X185978000Y-151585000D01*
X185948000Y-151525000D01*
X185929000Y-151462000D01*
X185922000Y-151396000D01*
X185925000Y-151330000D01*
X185940000Y-151266000D01*
X185966000Y-151204000D01*
X186001000Y-151149000D01*
X186046000Y-151100000D01*
X186096000Y-151061000D01*
X186096000Y-150357000D01*
X186046000Y-150318000D01*
X186001000Y-150269000D01*
X185966000Y-150214000D01*
X185940000Y-150152000D01*
X185925000Y-150088000D01*
X185922000Y-150022000D01*
X185929000Y-149956000D01*
X185948000Y-149893000D01*
X185978000Y-149833000D01*
X186017000Y-149780000D01*
X186064000Y-149734000D01*
X186119000Y-149696000D01*
X186179000Y-149669000D01*
X186243000Y-149652000D01*
X186309000Y-149646000D01*
X186375000Y-149652000D01*
G37*
X190625000Y-149652000D02*
X190689000Y-149669000D01*
X190749000Y-149696000D01*
X190804000Y-149734000D01*
X190851000Y-149780000D01*
X190890000Y-149833000D01*
X190920000Y-149893000D01*
X190939000Y-149956000D01*
X190946000Y-150022000D01*
X190943000Y-150088000D01*
X190928000Y-150152000D01*
X190902000Y-150214000D01*
X190867000Y-150269000D01*
X190822000Y-150318000D01*
X190772000Y-150357000D01*
X190772000Y-151061000D01*
X190772500Y-151060620D01*
X190822000Y-151100000D01*
X190867000Y-151149000D01*
X190902000Y-151204000D01*
X190928000Y-151266000D01*
X190943000Y-151330000D01*
X190946000Y-151396000D01*
X190939000Y-151462000D01*
X190920000Y-151525000D01*
X190890000Y-151585000D01*
X190851000Y-151638000D01*
X190804000Y-151684000D01*
X190749000Y-151722000D01*
X190689000Y-151749000D01*
X190625000Y-151766000D01*
X190559000Y-151772000D01*
X190493000Y-151766000D01*
X190429000Y-151749000D01*
X190369000Y-151722000D01*
X190314000Y-151684000D01*
X190267000Y-151638000D01*
X190228000Y-151585000D01*
X190198000Y-151525000D01*
X190179000Y-151462000D01*
X190172000Y-151396000D01*
X190175000Y-151330000D01*
X190190000Y-151266000D01*
X190216000Y-151204000D01*
X190251000Y-151149000D01*
X190296000Y-151100000D01*
X190345000Y-151061000D01*
X190345000Y-150357000D01*
X190296000Y-150318000D01*
X190251000Y-150269000D01*
X190216000Y-150214000D01*
X190190000Y-150152000D01*
X190175000Y-150088000D01*
X190172000Y-150022000D01*
X190179000Y-149956000D01*
X190198000Y-149893000D01*
X190228000Y-149833000D01*
X190267000Y-149780000D01*
X190314000Y-149734000D01*
X190369000Y-149696000D01*
X190429000Y-149669000D01*
X190493000Y-149652000D01*
X190559000Y-149646000D01*
X190625000Y-149652000D01*
G36*
X190625000Y-149652000D02*
G01*
X190689000Y-149669000D01*
X190749000Y-149696000D01*
X190804000Y-149734000D01*
X190851000Y-149780000D01*
X190890000Y-149833000D01*
X190920000Y-149893000D01*
X190939000Y-149956000D01*
X190946000Y-150022000D01*
X190943000Y-150088000D01*
X190928000Y-150152000D01*
X190902000Y-150214000D01*
X190867000Y-150269000D01*
X190822000Y-150318000D01*
X190772000Y-150357000D01*
X190772000Y-151061000D01*
X190772500Y-151060620D01*
X190822000Y-151100000D01*
X190867000Y-151149000D01*
X190902000Y-151204000D01*
X190928000Y-151266000D01*
X190943000Y-151330000D01*
X190946000Y-151396000D01*
X190939000Y-151462000D01*
X190920000Y-151525000D01*
X190890000Y-151585000D01*
X190851000Y-151638000D01*
X190804000Y-151684000D01*
X190749000Y-151722000D01*
X190689000Y-151749000D01*
X190625000Y-151766000D01*
X190559000Y-151772000D01*
X190493000Y-151766000D01*
X190429000Y-151749000D01*
X190369000Y-151722000D01*
X190314000Y-151684000D01*
X190267000Y-151638000D01*
X190228000Y-151585000D01*
X190198000Y-151525000D01*
X190179000Y-151462000D01*
X190172000Y-151396000D01*
X190175000Y-151330000D01*
X190190000Y-151266000D01*
X190216000Y-151204000D01*
X190251000Y-151149000D01*
X190296000Y-151100000D01*
X190345000Y-151061000D01*
X190345000Y-150357000D01*
X190296000Y-150318000D01*
X190251000Y-150269000D01*
X190216000Y-150214000D01*
X190190000Y-150152000D01*
X190175000Y-150088000D01*
X190172000Y-150022000D01*
X190179000Y-149956000D01*
X190198000Y-149893000D01*
X190228000Y-149833000D01*
X190267000Y-149780000D01*
X190314000Y-149734000D01*
X190369000Y-149696000D01*
X190429000Y-149669000D01*
X190493000Y-149652000D01*
X190559000Y-149646000D01*
X190625000Y-149652000D01*
G37*
X191475000Y-149652000D02*
X191539000Y-149669000D01*
X191599000Y-149696000D01*
X191654000Y-149734000D01*
X191701000Y-149780000D01*
X191740000Y-149833000D01*
X191770000Y-149893000D01*
X191789000Y-149956000D01*
X191796000Y-150022000D01*
X191793000Y-150088000D01*
X191778000Y-150152000D01*
X191752000Y-150214000D01*
X191717000Y-150269000D01*
X191672000Y-150318000D01*
X191622000Y-150357000D01*
X191622000Y-151061000D01*
X191672000Y-151100000D01*
X191717000Y-151149000D01*
X191752000Y-151204000D01*
X191778000Y-151266000D01*
X191793000Y-151330000D01*
X191796000Y-151396000D01*
X191789000Y-151462000D01*
X191770000Y-151525000D01*
X191740000Y-151585000D01*
X191701000Y-151638000D01*
X191654000Y-151684000D01*
X191599000Y-151722000D01*
X191539000Y-151749000D01*
X191475000Y-151766000D01*
X191409000Y-151772000D01*
X191343000Y-151766000D01*
X191279000Y-151749000D01*
X191219000Y-151722000D01*
X191164000Y-151684000D01*
X191117000Y-151638000D01*
X191078000Y-151585000D01*
X191048000Y-151525000D01*
X191029000Y-151462000D01*
X191022000Y-151396000D01*
X191025000Y-151330000D01*
X191040000Y-151266000D01*
X191066000Y-151204000D01*
X191101000Y-151149000D01*
X191146000Y-151100000D01*
X191195000Y-151061000D01*
X191195500Y-150357380D01*
X191195000Y-150357000D01*
X191146000Y-150318000D01*
X191101000Y-150269000D01*
X191066000Y-150214000D01*
X191040000Y-150152000D01*
X191025000Y-150088000D01*
X191022000Y-150022000D01*
X191029000Y-149956000D01*
X191048000Y-149893000D01*
X191078000Y-149833000D01*
X191117000Y-149780000D01*
X191164000Y-149734000D01*
X191219000Y-149696000D01*
X191279000Y-149669000D01*
X191343000Y-149652000D01*
X191409000Y-149646000D01*
X191475000Y-149652000D01*
G36*
X191475000Y-149652000D02*
G01*
X191539000Y-149669000D01*
X191599000Y-149696000D01*
X191654000Y-149734000D01*
X191701000Y-149780000D01*
X191740000Y-149833000D01*
X191770000Y-149893000D01*
X191789000Y-149956000D01*
X191796000Y-150022000D01*
X191793000Y-150088000D01*
X191778000Y-150152000D01*
X191752000Y-150214000D01*
X191717000Y-150269000D01*
X191672000Y-150318000D01*
X191622000Y-150357000D01*
X191622000Y-151061000D01*
X191672000Y-151100000D01*
X191717000Y-151149000D01*
X191752000Y-151204000D01*
X191778000Y-151266000D01*
X191793000Y-151330000D01*
X191796000Y-151396000D01*
X191789000Y-151462000D01*
X191770000Y-151525000D01*
X191740000Y-151585000D01*
X191701000Y-151638000D01*
X191654000Y-151684000D01*
X191599000Y-151722000D01*
X191539000Y-151749000D01*
X191475000Y-151766000D01*
X191409000Y-151772000D01*
X191343000Y-151766000D01*
X191279000Y-151749000D01*
X191219000Y-151722000D01*
X191164000Y-151684000D01*
X191117000Y-151638000D01*
X191078000Y-151585000D01*
X191048000Y-151525000D01*
X191029000Y-151462000D01*
X191022000Y-151396000D01*
X191025000Y-151330000D01*
X191040000Y-151266000D01*
X191066000Y-151204000D01*
X191101000Y-151149000D01*
X191146000Y-151100000D01*
X191195000Y-151061000D01*
X191195500Y-150357380D01*
X191195000Y-150357000D01*
X191146000Y-150318000D01*
X191101000Y-150269000D01*
X191066000Y-150214000D01*
X191040000Y-150152000D01*
X191025000Y-150088000D01*
X191022000Y-150022000D01*
X191029000Y-149956000D01*
X191048000Y-149893000D01*
X191078000Y-149833000D01*
X191117000Y-149780000D01*
X191164000Y-149734000D01*
X191219000Y-149696000D01*
X191279000Y-149669000D01*
X191343000Y-149652000D01*
X191409000Y-149646000D01*
X191475000Y-149652000D01*
G37*
%TD*%
D12*
%TO.C,R49*%
X235251000Y-54745000D03*
X235251000Y-53095000D03*
%TD*%
D13*
%TO.C,R32*%
X184618000Y-88218500D03*
X184618000Y-86393500D03*
%TD*%
D14*
%TO.C,R53*%
X188518800Y-93319000D03*
X188518800Y-96419000D03*
%TD*%
D13*
%TO.C,R23*%
X246814000Y-53599500D03*
X246814000Y-51774500D03*
%TD*%
D15*
%TO.C,C27*%
X243561000Y-131986000D03*
X243561000Y-128861000D03*
%TD*%
D16*
%TO.C,C26*%
X210218000Y-82356000D03*
X205818000Y-82356000D03*
%TD*%
D13*
%TO.C,R44*%
X233101000Y-53857500D03*
X233101000Y-52032500D03*
%TD*%
%TO.C,R28*%
X246614000Y-64449500D03*
X246614000Y-62624500D03*
%TD*%
D17*
%TO.C,Q11*%
X194818000Y-105410000D03*
D18*
X203968000Y-107950000D03*
D17*
X194818000Y-110490000D03*
%TD*%
D19*
%TO.C,JP7*%
X258089000Y-74803000D03*
D20*
X258089000Y-72263000D03*
%TD*%
D21*
%TO.C,U4*%
X189968000Y-142168500D03*
X187168000Y-142168500D03*
X187168000Y-143168500D03*
X189968000Y-143168500D03*
%TD*%
D22*
%TO.C,R36*%
X223980500Y-71656000D03*
X222155500Y-71656000D03*
%TD*%
D23*
%TO.C,R65*%
X257810000Y-49405500D03*
X257810000Y-51230500D03*
%TD*%
D19*
%TO.C,JP5*%
X254381000Y-74841000D03*
D20*
X254381000Y-72301000D03*
%TD*%
D24*
%TO.C,C16*%
X242868000Y-54156000D03*
X242868000Y-52081000D03*
%TD*%
D25*
%TO.C,R61*%
X247626000Y-95664000D03*
X249276000Y-95664000D03*
%TD*%
D26*
%TO.C,R12*%
X190010500Y-139018500D03*
X190010500Y-134218500D03*
%TD*%
D27*
%TO.C,Q3*%
X195717200Y-50618500D03*
X193817200Y-50618500D03*
X194767200Y-52493500D03*
%TD*%
D28*
%TO.C,D10*%
X258293000Y-90838000D03*
X258293000Y-95838000D03*
%TD*%
D15*
%TO.C,C29*%
X265618000Y-128718500D03*
X265618000Y-125593500D03*
%TD*%
D29*
%TO.C,U3*%
X187618000Y-147006000D03*
X188568000Y-147006000D03*
X189518000Y-147006000D03*
X189518000Y-144731000D03*
X188568000Y-144731000D03*
X187618000Y-144731000D03*
%TD*%
D15*
%TO.C,C32*%
X273618000Y-128718500D03*
X273618000Y-125593500D03*
%TD*%
D19*
%TO.C,JP2*%
X194225000Y-144000000D03*
D20*
X196765000Y-144000000D03*
%TD*%
D19*
%TO.C,JP8*%
X265709000Y-74798000D03*
D20*
X265709000Y-72258000D03*
%TD*%
D30*
%TO.C,R57*%
X201618000Y-77406000D03*
X201618000Y-74306000D03*
%TD*%
D31*
%TO.C,Q8*%
X221155500Y-43006000D03*
X221155500Y-44906000D03*
X223030500Y-43956000D03*
%TD*%
D32*
%TO.C,SW2*%
X227268001Y-65486349D03*
X227268001Y-59125651D03*
X230967999Y-65486349D03*
X230967999Y-59125651D03*
%TD*%
D33*
%TO.C,C5*%
X227605500Y-57231000D03*
X229505500Y-57231000D03*
%TD*%
D34*
%TO.C,C30*%
X255626000Y-93759000D03*
X255626000Y-92799000D03*
%TD*%
D14*
%TO.C,R47*%
X184618000Y-90806000D03*
X184618000Y-93906000D03*
%TD*%
D35*
%TO.C,C28*%
X255147000Y-96934000D03*
X252197000Y-96934000D03*
%TD*%
D36*
%TO.C,C34*%
X268961000Y-67597000D03*
X268961000Y-61997000D03*
%TD*%
D24*
%TO.C,C1*%
X183968000Y-147093500D03*
X183968000Y-145018500D03*
%TD*%
D37*
%TO.C,R62*%
X247752000Y-85442500D03*
X247752000Y-82517500D03*
%TD*%
D12*
%TO.C,R29*%
X244868000Y-56806000D03*
X244868000Y-55156000D03*
%TD*%
D30*
%TO.C,R52*%
X184618000Y-78656000D03*
X184618000Y-75556000D03*
%TD*%
D38*
%TO.C,C38*%
X270891000Y-48679500D03*
X270891000Y-45554500D03*
%TD*%
D39*
%TO.C,C31*%
X250038000Y-83726000D03*
X250038000Y-85626000D03*
%TD*%
D40*
%TO.C,U5*%
X200818000Y-72056000D03*
X203118000Y-72056000D03*
D41*
X203118000Y-65756000D03*
D40*
X205418000Y-72056000D03*
%TD*%
D42*
%TO.C,D7*%
X185071000Y-105537000D03*
X189071000Y-105537000D03*
%TD*%
D15*
%TO.C,C8*%
X189865000Y-45797000D03*
X189865000Y-42672000D03*
%TD*%
D33*
%TO.C,C6*%
X231668000Y-56906000D03*
X233568000Y-56906000D03*
%TD*%
D43*
%TO.C,J4*%
X259695000Y-26433000D03*
D44*
X257195000Y-26433000D03*
%TD*%
D45*
%TO.C,C3*%
X196164200Y-43136800D03*
X196164200Y-46261800D03*
%TD*%
D31*
%TO.C,Q9*%
X225380500Y-42956000D03*
X225380500Y-44856000D03*
X227255500Y-43906000D03*
%TD*%
D13*
%TO.C,R20*%
X187452000Y-45134500D03*
X187452000Y-43309500D03*
%TD*%
D14*
%TO.C,R19*%
X191260500Y-119636000D03*
X191260500Y-122736000D03*
%TD*%
D46*
%TO.C,C18*%
X190792500Y-101854000D03*
X187667500Y-101854000D03*
%TD*%
D47*
%TO.C,R59*%
X252197000Y-83829500D03*
X252197000Y-85654500D03*
%TD*%
D48*
%TO.C,H5*%
X184000000Y-30250000D03*
X184659010Y-28659010D03*
X184659010Y-31840990D03*
X186250000Y-28000000D03*
D49*
X186250000Y-30250000D03*
D48*
X186250000Y-32500000D03*
X187840990Y-28659010D03*
X187840990Y-31840990D03*
X188500000Y-30250000D03*
%TD*%
D50*
%TO.C,D3*%
X210393000Y-65568500D03*
X210393000Y-62593500D03*
%TD*%
D23*
%TO.C,R48*%
X234001000Y-59532500D03*
X234001000Y-61357500D03*
%TD*%
D51*
%TO.C,R39*%
X253745000Y-61790000D03*
X253745000Y-63440000D03*
%TD*%
D50*
%TO.C,D2*%
X203968000Y-77343500D03*
X203968000Y-74368500D03*
%TD*%
D52*
%TO.C,R63*%
X248260000Y-86968500D03*
X248260000Y-88103500D03*
%TD*%
D53*
%TO.C,Q13*%
X260470000Y-114225000D03*
D54*
X251320000Y-111685000D03*
D53*
X260470000Y-109145000D03*
%TD*%
D38*
%TO.C,C37*%
X270144000Y-59066500D03*
X270144000Y-55941500D03*
%TD*%
D13*
%TO.C,R43*%
X184618000Y-83018500D03*
X184618000Y-81193500D03*
%TD*%
D55*
%TO.C,C33*%
X267271500Y-94394000D03*
X270396500Y-94394000D03*
%TD*%
D51*
%TO.C,R2*%
X197368000Y-149081000D03*
X197368000Y-150731000D03*
%TD*%
D56*
%TO.C,C10*%
X208128000Y-68486000D03*
X213053000Y-68486000D03*
%TD*%
D45*
%TO.C,C36*%
X268239000Y-50607500D03*
X268239000Y-53732500D03*
%TD*%
D48*
%TO.C,H4*%
X210917657Y-92821057D03*
X211576667Y-91230067D03*
X211576667Y-94412047D03*
X213167657Y-90571057D03*
D49*
X213167657Y-92821057D03*
D48*
X213167657Y-95071057D03*
X214758647Y-91230067D03*
X214758647Y-94412047D03*
X215417657Y-92821057D03*
%TD*%
D57*
%TO.C,U11*%
X253486000Y-88109000D03*
X252216000Y-88109000D03*
X250946000Y-88109000D03*
X249676000Y-88109000D03*
X249676000Y-93059000D03*
X250946000Y-93059000D03*
X252216000Y-93059000D03*
X253486000Y-93059000D03*
D58*
X251581000Y-90584000D03*
%TD*%
D59*
%TO.C,J3*%
X267368000Y-133106000D03*
D60*
X267368000Y-139106000D03*
D61*
X272068000Y-136106000D03*
%TD*%
D62*
%TO.C,U1*%
X184114000Y-150534000D03*
D63*
X184114000Y-154684000D03*
D62*
X192754000Y-150534000D03*
D63*
X192754000Y-154684000D03*
%TD*%
D64*
%TO.C,C12*%
X189198000Y-140818500D03*
X190923000Y-140818500D03*
%TD*%
D13*
%TO.C,R21*%
X197307200Y-53218500D03*
X197307200Y-51393500D03*
%TD*%
D22*
%TO.C,R42*%
X231780500Y-43156000D03*
X229955500Y-43156000D03*
%TD*%
D23*
%TO.C,R31*%
X215718000Y-67193500D03*
X215718000Y-69018500D03*
%TD*%
D65*
%TO.C,U9*%
X188118000Y-66051000D03*
X188118000Y-67321000D03*
X188118000Y-68591000D03*
X188118000Y-69861000D03*
X188118000Y-71131000D03*
X188118000Y-72401000D03*
X188118000Y-73671000D03*
X188118000Y-74941000D03*
X188118000Y-76211000D03*
X188118000Y-77481000D03*
X188118000Y-78751000D03*
X188118000Y-80021000D03*
X188118000Y-81291000D03*
X188118000Y-82561000D03*
X197718000Y-82561000D03*
X197718000Y-81291000D03*
X197718000Y-80021000D03*
X197718000Y-78751000D03*
X197718000Y-77481000D03*
X197718000Y-76211000D03*
X197718000Y-74941000D03*
X197718000Y-73671000D03*
X197718000Y-72401000D03*
X197718000Y-71131000D03*
X197718000Y-69861000D03*
X197718000Y-68591000D03*
X197718000Y-67321000D03*
X197718000Y-66051000D03*
%TD*%
D56*
%TO.C,C7*%
X208855500Y-72406000D03*
X213780500Y-72406000D03*
%TD*%
D66*
%TO.C,D6*%
X195318000Y-87681000D03*
X198293000Y-87681000D03*
%TD*%
D67*
%TO.C,C11*%
X185460500Y-130143500D03*
X185460500Y-132218500D03*
%TD*%
D68*
%TO.C,R9*%
X221855500Y-55106000D03*
X223680500Y-55106000D03*
%TD*%
D14*
%TO.C,R18*%
X196260500Y-119636000D03*
X196260500Y-122736000D03*
%TD*%
D42*
%TO.C,D9*%
X248155000Y-133225000D03*
X252155000Y-133225000D03*
%TD*%
D45*
%TO.C,C4*%
X192913000Y-43124500D03*
X192913000Y-46249500D03*
%TD*%
D69*
%TO.C,U10*%
X266939000Y-122329000D03*
X269479000Y-122329000D03*
D70*
X272019000Y-122329000D03*
%TD*%
D71*
%TO.C,U2*%
X199174800Y-42668400D03*
X199174800Y-43938400D03*
X199174800Y-45208400D03*
X199174800Y-46478400D03*
X199174800Y-47748400D03*
X199174800Y-49018400D03*
X199174800Y-50288400D03*
X199174800Y-51558400D03*
X199174800Y-52828400D03*
X199174800Y-54098400D03*
X199174800Y-55368400D03*
X199174800Y-56638400D03*
X199174800Y-57908400D03*
X199174800Y-59178400D03*
D72*
X202209800Y-60428400D03*
X203479800Y-60428400D03*
X204749800Y-60428400D03*
X206019800Y-60428400D03*
X207289800Y-60428400D03*
X208559800Y-60428400D03*
X209829800Y-60428400D03*
X211099800Y-60428400D03*
X212369800Y-60428400D03*
X213639800Y-60428400D03*
D71*
X216674800Y-59178400D03*
X216674800Y-57908400D03*
X216674800Y-56638400D03*
X216674800Y-55368400D03*
X216674800Y-54098400D03*
X216674800Y-52828400D03*
X216674800Y-51558400D03*
X216674800Y-50288400D03*
X216674800Y-49018400D03*
X216674800Y-47748400D03*
X216674800Y-46478400D03*
X216674800Y-45208400D03*
X216674800Y-43938400D03*
X216674800Y-42668400D03*
D73*
X205024800Y-48988400D03*
D74*
X205024800Y-49688400D03*
D73*
X205024800Y-50388400D03*
D74*
X205024800Y-51088400D03*
D73*
X205024800Y-51788400D03*
D74*
X205724800Y-48988400D03*
X205724800Y-50388400D03*
X205724800Y-51788400D03*
D73*
X206424800Y-48988400D03*
D74*
X206424800Y-49688400D03*
D73*
X206424800Y-50388400D03*
D74*
X206424800Y-51088400D03*
D73*
X206424800Y-51788400D03*
D74*
X207124800Y-48988400D03*
X207124800Y-50388400D03*
X207124800Y-51788400D03*
D73*
X207824800Y-48988400D03*
D74*
X207824800Y-49688400D03*
D73*
X207824800Y-50388400D03*
D74*
X207824800Y-51088400D03*
D73*
X207824800Y-51788400D03*
%TD*%
D42*
%TO.C,D8*%
X234608000Y-69756000D03*
X238608000Y-69756000D03*
%TD*%
D75*
%TO.C,R54*%
X192718000Y-85206000D03*
X195818000Y-85206000D03*
%TD*%
D76*
%TO.C,C13*%
X187535500Y-140818500D03*
X185810500Y-140818500D03*
%TD*%
D77*
%TO.C,C22*%
X184830000Y-110363000D03*
X189230000Y-110363000D03*
%TD*%
D48*
%TO.C,H7*%
X270090810Y-33931410D03*
X270749820Y-32340420D03*
X270749820Y-35522400D03*
X272340810Y-31681410D03*
D49*
X272340810Y-33931410D03*
D48*
X272340810Y-36181410D03*
X273931800Y-32340420D03*
X273931800Y-35522400D03*
X274590810Y-33931410D03*
%TD*%
D78*
%TO.C,U8*%
X237676000Y-56040000D03*
X237676000Y-57310000D03*
X237676000Y-58580000D03*
X237676000Y-59850000D03*
X242926000Y-59850000D03*
X242926000Y-58580000D03*
X242926000Y-57310000D03*
X242926000Y-56040000D03*
%TD*%
D77*
%TO.C,C24*%
X226718000Y-69306000D03*
X231118000Y-69306000D03*
%TD*%
D67*
%TO.C,C19*%
X184468000Y-66031000D03*
X184468000Y-68106000D03*
%TD*%
D23*
%TO.C,R33*%
X256032000Y-61926500D03*
X256032000Y-63751500D03*
%TD*%
D19*
%TO.C,JP1*%
X216032000Y-143256000D03*
D20*
X213492000Y-143256000D03*
%TD*%
D79*
%TO.C,Q4*%
X195118000Y-61406000D03*
X195118000Y-59506000D03*
X193243000Y-60456000D03*
%TD*%
D14*
%TO.C,R51*%
X187168000Y-87556000D03*
X187168000Y-90656000D03*
%TD*%
D53*
%TO.C,Q12*%
X260470000Y-126575000D03*
D54*
X251320000Y-124035000D03*
D53*
X260470000Y-121495000D03*
%TD*%
D13*
%TO.C,R5*%
X198618000Y-122118500D03*
X198618000Y-120293500D03*
%TD*%
D48*
%TO.C,H9*%
X268840810Y-75931410D03*
X269499820Y-74340420D03*
X269499820Y-77522400D03*
X271090810Y-73681410D03*
D49*
X271090810Y-75931410D03*
D48*
X271090810Y-78181410D03*
X272681800Y-74340420D03*
X272681800Y-77522400D03*
X273340810Y-75931410D03*
%TD*%
D15*
%TO.C,C25*%
X215318000Y-79218500D03*
X215318000Y-76093500D03*
%TD*%
D19*
%TO.C,JP6*%
X261899000Y-74803000D03*
D20*
X261899000Y-72263000D03*
%TD*%
D13*
%TO.C,R41*%
X228055500Y-51743500D03*
X228055500Y-49918500D03*
%TD*%
D14*
%TO.C,R17*%
X188760500Y-119636000D03*
X188760500Y-122736000D03*
%TD*%
D37*
%TO.C,R60*%
X254737000Y-85635000D03*
X254737000Y-82710000D03*
%TD*%
D42*
%TO.C,D1*%
X219868000Y-64906000D03*
X223868000Y-64906000D03*
%TD*%
D68*
%TO.C,R35*%
X226843000Y-46906000D03*
X228668000Y-46906000D03*
%TD*%
%TO.C,R4*%
X194005500Y-48506000D03*
X195830500Y-48506000D03*
%TD*%
D80*
%TO.C,Q1*%
X187391000Y-58595500D03*
X189291000Y-58595500D03*
X188341000Y-56720500D03*
%TD*%
D81*
%TO.C,U6*%
X194118000Y-124856000D03*
X193483000Y-124856000D03*
X192848000Y-124856000D03*
X192213000Y-124856000D03*
X191578000Y-124856000D03*
X190943000Y-124856000D03*
X190308000Y-124856000D03*
X189673000Y-124856000D03*
X189038000Y-124856000D03*
X188403000Y-124856000D03*
X188403000Y-130056000D03*
X189038000Y-130056000D03*
X189673000Y-130056000D03*
X190308000Y-130056000D03*
X190943000Y-130056000D03*
X191578000Y-130056000D03*
X192213000Y-130056000D03*
X192848000Y-130056000D03*
X193483000Y-130056000D03*
X194118000Y-130056000D03*
%TD*%
D78*
%TO.C,U7*%
X246789000Y-56082000D03*
X246789000Y-57352000D03*
X246789000Y-58622000D03*
X246789000Y-59892000D03*
X252039000Y-59892000D03*
X252039000Y-58622000D03*
X252039000Y-57352000D03*
X252039000Y-56082000D03*
%TD*%
D82*
%TO.C,C15*%
X190568000Y-132106000D03*
X192643000Y-132106000D03*
%TD*%
D19*
%TO.C,J1*%
X237109000Y-34163000D03*
D20*
X239649000Y-34163000D03*
X237109000Y-36703000D03*
X239649000Y-36703000D03*
X237109000Y-39243000D03*
X239649000Y-39243000D03*
X237109000Y-41783000D03*
X239649000Y-41783000D03*
X237109000Y-44323000D03*
X239649000Y-44323000D03*
X237109000Y-46863000D03*
X239649000Y-46863000D03*
%TD*%
D50*
%TO.C,D5*%
X186160500Y-117523500D03*
X186160500Y-114548500D03*
%TD*%
D55*
%TO.C,C14*%
X192968000Y-134556000D03*
X196093000Y-134556000D03*
%TD*%
D30*
%TO.C,R11*%
X207993000Y-65681000D03*
X207993000Y-62581000D03*
%TD*%
D17*
%TO.C,Q16*%
X237079000Y-23876000D03*
D18*
X246229000Y-26416000D03*
D17*
X237079000Y-28956000D03*
%TD*%
D30*
%TO.C,R37*%
X249341000Y-66296000D03*
X249341000Y-63196000D03*
%TD*%
D19*
%TO.C,JP3*%
X250571000Y-74841000D03*
D20*
X250571000Y-72301000D03*
%TD*%
D83*
%TO.C,C21*%
X210058000Y-128524000D03*
X210058000Y-136924000D03*
%TD*%
D14*
%TO.C,R15*%
X186160500Y-119586000D03*
X186160500Y-122686000D03*
%TD*%
D84*
%TO.C,Q14*%
X237783000Y-75331000D03*
D85*
X235243000Y-84481000D03*
D84*
X232703000Y-75331000D03*
%TD*%
D34*
%TO.C,C2*%
X184468000Y-143486000D03*
X184468000Y-142526000D03*
%TD*%
D55*
%TO.C,C9*%
X226355500Y-55031000D03*
X229480500Y-55031000D03*
%TD*%
D14*
%TO.C,R14*%
X200968000Y-119656000D03*
X200968000Y-122756000D03*
%TD*%
D86*
%TO.C,C20*%
X249793000Y-141511000D03*
X241393000Y-141511000D03*
%TD*%
D23*
%TO.C,R30*%
X249264000Y-51724500D03*
X249264000Y-53549500D03*
%TD*%
D87*
%TO.C,R64*%
X247049500Y-88044000D03*
X245914500Y-88044000D03*
%TD*%
D68*
%TO.C,R6*%
X187355500Y-60906000D03*
X189180500Y-60906000D03*
%TD*%
D88*
%TO.C,U12*%
X261266000Y-56306000D03*
D89*
X258403500Y-54031000D03*
X258403500Y-54681000D03*
X258403500Y-55331000D03*
X258403500Y-55981000D03*
X258403500Y-56631000D03*
X258403500Y-57281000D03*
X258403500Y-57931000D03*
X258403500Y-58581000D03*
X264128500Y-58581000D03*
X264128500Y-57931000D03*
X264128500Y-57281000D03*
X264128500Y-56631000D03*
X264128500Y-55981000D03*
X264128500Y-55331000D03*
X264128500Y-54681000D03*
X264128500Y-54031000D03*
%TD*%
D13*
%TO.C,R38*%
X251841000Y-65708500D03*
X251841000Y-63883500D03*
%TD*%
D12*
%TO.C,R1*%
X195368000Y-150656000D03*
X195368000Y-149006000D03*
%TD*%
D68*
%TO.C,R27*%
X192205500Y-63306000D03*
X194030500Y-63306000D03*
%TD*%
D23*
%TO.C,R24*%
X184218000Y-60843500D03*
X184218000Y-62668500D03*
%TD*%
D90*
%TO.C,J2*%
X223618000Y-132406000D03*
X223618000Y-137406000D03*
D91*
X228618000Y-132406000D03*
X228618000Y-137406000D03*
X233618000Y-132406000D03*
X233618000Y-137406000D03*
%TD*%
D23*
%TO.C,R40*%
X251689000Y-51724500D03*
X251689000Y-53549500D03*
%TD*%
D15*
%TO.C,C35*%
X267223000Y-59066500D03*
X267223000Y-55941500D03*
%TD*%
D92*
%TO.C,R46*%
X236918000Y-64156000D03*
X233818000Y-64156000D03*
%TD*%
D22*
%TO.C,R3*%
X223518000Y-59506000D03*
X221693000Y-59506000D03*
%TD*%
D19*
%TO.C,J5*%
X267081000Y-45974000D03*
D20*
X267081000Y-43434000D03*
X267081000Y-40894000D03*
X267081000Y-38354000D03*
%TD*%
D93*
%TO.C,L1*%
X186018000Y-147256000D03*
X186018000Y-144956000D03*
%TD*%
D43*
%TO.C,J6*%
X268692000Y-26416000D03*
D44*
X266192000Y-26416000D03*
%TD*%
D22*
%TO.C,R50*%
X240063500Y-53745000D03*
X238238500Y-53745000D03*
%TD*%
%TO.C,R26*%
X189105500Y-63306000D03*
X187280500Y-63306000D03*
%TD*%
D27*
%TO.C,Q6*%
X216868000Y-62731000D03*
X214968000Y-62731000D03*
X215918000Y-64606000D03*
%TD*%
D14*
%TO.C,R66*%
X233868000Y-37656000D03*
X233868000Y-40756000D03*
%TD*%
D94*
%TO.C,L2*%
X261378600Y-86070700D03*
X272478600Y-86070700D03*
%TD*%
D23*
%TO.C,R34*%
X224713800Y-49862100D03*
X224713800Y-51687100D03*
%TD*%
D19*
%TO.C,JP4*%
X246761000Y-74841000D03*
D20*
X246761000Y-72301000D03*
%TD*%
D26*
%TO.C,R13*%
X186710500Y-139018500D03*
X186710500Y-134218500D03*
%TD*%
D14*
%TO.C,R16*%
X193760500Y-119636000D03*
X193760500Y-122736000D03*
%TD*%
D80*
%TO.C,Q7*%
X221168000Y-50843500D03*
X223068000Y-50843500D03*
X222118000Y-48968500D03*
%TD*%
D14*
%TO.C,R58*%
X242926000Y-71508000D03*
X242926000Y-74608000D03*
%TD*%
D79*
%TO.C,Q5*%
X197043000Y-57606000D03*
X197043000Y-55706000D03*
X195168000Y-56656000D03*
%TD*%
D14*
%TO.C,R10*%
X206318000Y-74306000D03*
X206318000Y-77406000D03*
%TD*%
D17*
%TO.C,Q10*%
X194885000Y-92366000D03*
D18*
X204035000Y-94906000D03*
D17*
X194885000Y-97446000D03*
%TD*%
D68*
%TO.C,R8*%
X221743000Y-46906000D03*
X223568000Y-46906000D03*
%TD*%
D13*
%TO.C,R7*%
X212818000Y-64968500D03*
X212818000Y-63143500D03*
%TD*%
D15*
%TO.C,C23*%
X191008000Y-97396700D03*
X191008000Y-94271700D03*
%TD*%
D48*
%TO.C,H1*%
X239820343Y-121723743D03*
X240479353Y-120132753D03*
X240479353Y-123314733D03*
X242070343Y-119473743D03*
D49*
X242070343Y-121723743D03*
D48*
X242070343Y-123973743D03*
X243661333Y-120132753D03*
X243661333Y-123314733D03*
X244320343Y-121723743D03*
%TD*%
D84*
%TO.C,Q15*%
X225433000Y-75331000D03*
D85*
X222893000Y-84481000D03*
D84*
X220353000Y-75331000D03*
%TD*%
D92*
%TO.C,R45*%
X193068000Y-87731000D03*
X189968000Y-87731000D03*
%TD*%
D30*
%TO.C,R25*%
X241418000Y-67956000D03*
X241418000Y-64856000D03*
%TD*%
D24*
%TO.C,C17*%
X254618000Y-55443500D03*
X254618000Y-53368500D03*
%TD*%
D92*
%TO.C,R56*%
X190568000Y-85206000D03*
X187468000Y-85206000D03*
%TD*%
%TO.C,R55*%
X200868000Y-85206000D03*
X197768000Y-85206000D03*
%TD*%
D50*
%TO.C,D4*%
X201068000Y-117593500D03*
X201068000Y-114618500D03*
%TD*%
D68*
%TO.C,R22*%
X198955500Y-63156000D03*
X200780500Y-63156000D03*
%TD*%
D31*
%TO.C,Q2*%
X191213500Y-55946000D03*
X191213500Y-57846000D03*
X193088500Y-56896000D03*
%TD*%
D32*
%TO.C,SW1*%
X191841999Y-48006000D03*
X191841999Y-54366698D03*
X188142001Y-48006000D03*
X188142001Y-54366698D03*
%TD*%
M02*
