M48
; DRILL file {KiCad 8.0.7} date 2025-07-24T12:10:54+0200
; FORMAT={-:-/ absolute / inch / decimal}
; #@! TF.CreationDate,2025-07-24T12:10:54+02:00
; #@! TF.GenerationSoftware,Kicad,Pcbnew,8.0.7
; #@! TF.FileFunction,Plated,1,4,PTH
FMAT,2
INCH
; #@! TA.AperFunction,Plated,PTH,ViaDrill
T1C0.0079
; #@! TA.AperFunction,Plated,PTH,ComponentDrill
T2C0.0079
; #@! TA.AperFunction,Plated,PTH,ViaDrill
T3C0.0098
; #@! TA.AperFunction,Plated,PTH,ViaDrill
T4C0.0118
; #@! TA.AperFunction,Plated,PTH,ViaDrill
T5C0.0157
; #@! TA.AperFunction,Plated,PTH,ComponentDrill
T6C0.0157
; #@! TA.AperFunction,Plated,PTH,ComponentDrill
T7C0.0197
; #@! TA.AperFunction,Plated,PTH,ComponentDrill
T8C0.0276
; #@! TA.AperFunction,Plated,PTH,ComponentDrill
T9C0.0394
; #@! TA.AperFunction,Plated,PTH,ComponentDrill
T10C0.0453
; #@! TA.AperFunction,Plated,PTH,ComponentDrill
T11C0.1181
%
G90
G05
T1
X7.2291Y-3.6479
X7.2366Y-2.604
X7.2802Y-2.4333
X7.288Y-1.7883
X7.288Y-1.8883
X7.32Y-3.73
X7.3255Y-4.8762
X7.3327Y-5.8366
X7.388Y-5.3883
X7.388Y-6.0883
X7.3885Y-4.9117
X7.3915Y-4.5801
X7.4082Y-4.205
X7.4102Y-2.4333
X7.475Y-2.36
X7.488Y-1.9883
X7.488Y-5.3883
X7.488Y-6.0883
X7.4948Y-5.0573
X7.515Y-4.285
X7.538Y-2.316
X7.588Y-5.3883
X7.588Y-5.4883
X7.5924Y-4.9648
X7.61Y-4.29
X7.6523Y-2.7935
X7.6579Y-3.7564
X7.688Y-5.4883
X7.688Y-5.5883
X7.688Y-6.0883
X7.6945Y-3.9749
X7.74Y-4.396
X7.7606Y-5.8329
X7.788Y-5.2883
X7.788Y-5.3883
X7.788Y-5.4883
X7.788Y-5.5883
X7.788Y-6.0883
X7.816Y-4.318
X7.841Y-4.699
X7.885Y-2.9792
X7.888Y-3.4883
X7.888Y-5.7883
X7.888Y-5.8883
X7.888Y-5.9883
X7.888Y-6.0883
X7.9279Y-2.7128
X7.988Y-1.6883
X7.988Y-3.4883
X7.988Y-3.9883
X7.988Y-5.0883
X7.988Y-5.1883
X7.988Y-5.2883
X7.988Y-5.3883
X7.988Y-5.4883
X7.988Y-5.5883
X7.988Y-5.6883
X7.988Y-5.7883
X7.988Y-5.8883
X7.988Y-5.9883
X7.988Y-6.0883
X8.088Y-5.1883
X8.088Y-5.2883
X8.088Y-5.3883
X8.088Y-5.4883
X8.088Y-5.5883
X8.088Y-5.6883
X8.088Y-5.7883
X8.088Y-5.8883
X8.088Y-5.9883
X8.088Y-6.0883
X8.1444Y-5.0554
X8.15Y-5.49
X8.1523Y-4.5855
X8.188Y-5.1883
X8.188Y-5.2883
X8.188Y-5.5883
X8.188Y-5.6883
X8.188Y-5.7883
X8.188Y-5.8883
X8.188Y-5.9883
X8.188Y-6.0883
X8.2566Y-3.0081
X8.288Y-1.6883
X8.288Y-1.9883
X8.288Y-2.6883
X8.288Y-3.0883
X8.288Y-3.7883
X8.288Y-3.8883
X8.288Y-5.5883
X8.288Y-5.6883
X8.288Y-5.7883
X8.288Y-5.8883
X8.288Y-5.9883
X8.288Y-6.0883
X8.3553Y-3.3853
X8.388Y-4.5883
X8.388Y-4.6883
X8.388Y-4.7883
X8.388Y-5.3883
X8.388Y-5.4883
X8.388Y-5.7883
X8.388Y-5.8883
X8.388Y-5.9883
X8.388Y-6.0883
X8.4102Y-2.0534
X8.4275Y-3.0618
X8.4324Y-2.0817
X8.4692Y-2.2404
X8.488Y-4.7883
X8.488Y-5.4883
X8.488Y-5.7883
X8.488Y-5.8883
X8.488Y-5.9883
X8.488Y-6.0883
X8.5Y-3.385
X8.5381Y-5.0258
X8.5844Y-3.0007
X8.588Y-3.5883
X8.588Y-4.7883
X8.588Y-5.1883
X8.588Y-5.5883
X8.588Y-5.6883
X8.588Y-5.7883
X8.588Y-5.8883
X8.588Y-5.9883
X8.588Y-6.0883
X8.6118Y-1.9604
X8.614Y-2.0731
X8.688Y-3.5883
X8.688Y-5.2883
X8.688Y-5.6883
X8.688Y-5.7883
X8.688Y-5.8883
X8.688Y-5.9883
X8.688Y-6.0883
X8.788Y-5.7883
X8.788Y-5.8883
X8.788Y-5.9883
X8.788Y-6.0883
X8.8334Y-1.6908
X8.888Y-5.0883
X8.888Y-5.1883
X8.888Y-5.2883
X8.888Y-5.3883
X8.888Y-5.7883
X8.888Y-5.8883
X8.888Y-5.9883
X8.888Y-6.0883
X8.9023Y-2.4274
X8.911Y-2.388
X8.9413Y-1.7774
X8.988Y-2.5883
X8.988Y-2.8883
X8.988Y-5.0883
X8.988Y-5.5883
X8.988Y-5.7883
X8.988Y-5.8883
X8.988Y-5.9883
X8.988Y-6.0883
X9.088Y-5.3883
X9.088Y-5.4883
X9.088Y-5.5883
X9.088Y-5.7883
X9.088Y-5.8883
X9.088Y-5.9883
X9.088Y-6.0883
X9.1483Y-2.388
X9.1635Y-2.6706
X9.17Y-1.77
X9.188Y-0.8883
X9.188Y-5.5883
X9.188Y-5.7883
X9.188Y-5.8883
X9.188Y-5.9883
X9.188Y-6.0883
X9.2094Y-2.9038
X9.2295Y-2.3757
X9.25Y-1.7985
X9.2566Y-3.0967
X9.288Y-0.8883
X9.288Y-1.0883
X9.288Y-5.3883
X9.288Y-5.4883
X9.288Y-5.5883
X9.288Y-5.7883
X9.288Y-5.8883
X9.288Y-5.9883
X9.288Y-6.0883
X9.3255Y-2.0742
X9.3452Y-2.639
X9.355Y-1.215
X9.3823Y-3.5315
X9.388Y-0.8883
X9.388Y-1.0883
X9.388Y-4.8883
X9.388Y-5.3883
X9.388Y-5.5883
X9.388Y-5.8883
X9.388Y-5.9883
X9.388Y-6.0883
X9.438Y-2.5052
X9.488Y-5.3883
X9.488Y-5.8883
X9.488Y-5.9883
X9.488Y-6.0883
X9.5716Y-2.703
X9.588Y-3.1883
X9.588Y-3.2883
X9.588Y-3.4883
X9.588Y-3.5883
X9.588Y-4.4883
X9.588Y-5.3883
X9.588Y-5.4883
X9.588Y-5.6883
X9.588Y-5.8883
X9.588Y-5.9883
X9.588Y-6.0883
X9.63Y-4.998
X9.647Y-2.6069
X9.67Y-4.11
X9.6817Y-3.4963
X9.688Y-3.1883
X9.688Y-5.2883
X9.688Y-5.3883
X9.688Y-5.4883
X9.688Y-5.5883
X9.688Y-5.8883
X9.688Y-5.9883
X9.688Y-6.0883
X9.6897Y-3.579
X9.6897Y-3.6085
X9.6897Y-3.638
X9.7Y-3.8957
X9.7005Y-4.6155
X9.7094Y-2.2306
X9.7192Y-3.579
X9.7192Y-3.6085
X9.7192Y-3.638
X9.7487Y-3.579
X9.7487Y-3.6085
X9.7487Y-3.638
X9.7783Y-3.579
X9.7783Y-3.6085
X9.7783Y-3.638
X9.788Y-2.6883
X9.788Y-3.1883
X9.788Y-5.3883
X9.788Y-5.4883
X9.788Y-5.7883
X9.788Y-5.8883
X9.788Y-5.9883
X9.788Y-6.0883
X9.857Y-3.5983
X9.8575Y-3.5363
X9.8581Y-3.5676
X9.8767Y-2.2798
X9.888Y-2.6883
X9.888Y-5.6883
X9.888Y-5.7883
X9.888Y-5.8883
X9.888Y-5.9883
X9.888Y-6.0883
X9.9007Y-3.5967
X9.9048Y-3.5663
X9.9054Y-3.5348
X9.9497Y-3.5978
X9.9502Y-3.5348
X9.9508Y-3.563
X9.985Y-2.5278
X9.988Y-1.0883
X9.988Y-1.1883
X9.988Y-2.6883
X9.988Y-3.7883
X9.988Y-5.5883
X9.988Y-5.6883
X9.988Y-5.7883
X9.988Y-5.8883
X9.988Y-5.9883
X9.988Y-6.0883
X10.014Y-3.2113
X10.084Y-2.204
X10.088Y-1.1883
X10.088Y-2.5883
X10.088Y-2.6883
X10.088Y-5.1883
X10.088Y-5.2883
X10.088Y-5.3883
X10.088Y-5.4883
X10.088Y-5.5883
X10.088Y-5.6883
X10.088Y-5.7883
X10.088Y-5.8883
X10.088Y-5.9883
X10.088Y-6.0883
X10.1237Y-2.0824
X10.188Y-4.3883
X10.188Y-4.8883
X10.188Y-5.2883
X10.188Y-5.3883
X10.188Y-5.4883
X10.188Y-5.5883
X10.188Y-5.6883
X10.188Y-5.7883
X10.188Y-5.8883
X10.188Y-5.9883
X10.188Y-6.0883
X10.22Y-1.3359
X10.2704Y-3.7561
X10.2704Y-3.8152
X10.288Y-1.0883
X10.288Y-4.1883
X10.288Y-4.3883
X10.288Y-5.0883
X10.288Y-5.2883
X10.288Y-5.3883
X10.288Y-5.4883
X10.288Y-5.5883
X10.288Y-5.6883
X10.288Y-5.7883
X10.288Y-5.8883
X10.288Y-5.9883
X10.288Y-6.0883
X10.2891Y-1.8741
X10.3Y-1.335
X10.3098Y-3.7561
X10.3098Y-3.8152
X10.3491Y-3.7561
X10.3491Y-3.8152
X10.388Y-1.0883
X10.388Y-4.5883
X10.388Y-4.6883
X10.388Y-4.7883
X10.388Y-4.8883
X10.388Y-4.9883
X10.388Y-5.0883
X10.388Y-5.2883
X10.388Y-5.3883
X10.388Y-5.4883
X10.388Y-5.5883
X10.388Y-5.6883
X10.388Y-5.7883
X10.388Y-5.8883
X10.388Y-5.9883
X10.388Y-6.0883
X10.3885Y-3.7561
X10.3885Y-3.8152
X10.39Y-1.38
X10.3928Y-1.53
X10.405Y-1.345
X10.4279Y-3.7561
X10.4279Y-3.8152
X10.488Y-0.8883
X10.488Y-1.1883
X10.488Y-2.3883
X10.488Y-2.4883
X10.488Y-4.1883
X10.488Y-4.2883
X10.488Y-4.3883
X10.488Y-5.3883
X10.488Y-5.5883
X10.488Y-5.6883
X10.488Y-5.7883
X10.488Y-5.8883
X10.488Y-5.9883
X10.488Y-6.0883
X10.588Y-0.8883
X10.588Y-4.1883
X10.588Y-4.2883
X10.588Y-4.6883
X10.588Y-5.3883
X10.588Y-5.5883
X10.588Y-5.6883
X10.588Y-5.7883
X10.588Y-5.8883
X10.588Y-5.9883
X10.588Y-6.0883
X10.655Y-3.765
X10.688Y-0.8883
X10.688Y-0.9883
X10.688Y-1.0883
X10.688Y-1.1883
X10.688Y-2.4883
X10.688Y-5.4883
X10.688Y-5.5883
X10.688Y-5.6883
X10.688Y-5.7883
X10.688Y-5.8883
X10.688Y-5.9883
X10.688Y-6.0883
X10.7428Y-4.3467
X10.788Y-0.8883
X10.788Y-0.9883
X10.788Y-1.0883
X10.788Y-1.1883
X10.788Y-1.4883
X10.788Y-1.7883
X10.788Y-1.8883
X10.788Y-2.3883
X10.788Y-2.4883
X10.788Y-4.4883
X10.788Y-4.5883
X10.788Y-4.6883
X10.788Y-4.7883
X10.788Y-5.2883
X10.788Y-5.3883
X10.788Y-5.4883
X10.788Y-5.5883
X10.788Y-5.6883
X10.788Y-5.7883
X10.788Y-5.8883
X10.788Y-5.9883
X10.788Y-6.0883
T2
X8.0718Y-1.9562
X8.0718Y-2.0114
X8.0994Y-1.9287
X8.0994Y-1.9838
X8.0994Y-2.0389
X8.127Y-1.9562
X8.127Y-2.0114
X8.1545Y-1.9287
X8.1545Y-1.9838
X8.1545Y-2.0389
X8.1821Y-1.9562
X8.1821Y-2.0114
X10.2565Y-2.1577
X10.2565Y-2.2168
X10.2565Y-2.2758
X10.3156Y-2.1577
X10.3156Y-2.2168
X10.3156Y-2.2758
T3
X7.3157Y-3.5376
X7.3216Y-3.1026
X7.3354Y-2.6518
X7.3376Y-2.5049
X7.3424Y-3.0004
X7.3511Y-3.1203
X7.359Y-1.8799
X7.359Y-2.9077
X7.36Y-4.115
X7.4456Y-3.4038
X7.4594Y-4.5711
X7.4606Y-2.6673
X7.483Y-2.951
X7.483Y-3.782
X7.485Y-3.0672
X7.521Y-1.8491
X7.5539Y-3.8782
X7.5637Y-2.7719
X7.5775Y-3.7758
X7.599Y-2.7704
X7.6284Y-4.575
X7.6326Y-2.2896
X7.6483Y-4.4668
X7.6568Y-2.5415
X7.668Y-2.011
X7.731Y-2.136
X7.731Y-2.5061
X7.733Y-4.0554
X7.7366Y-3.1359
X7.7802Y-2.3191
X7.7901Y-1.877
X7.792Y-4.3762
X7.805Y-2.5503
X7.8147Y-2.4126
X7.8393Y-2.2884
X7.8728Y-2.7798
X7.8885Y-2.4176
X7.9019Y-2.3112
X7.9082Y-1.8299
X8.0165Y-2.4707
X8.0854Y-2.2207
X8.1879Y-2.9223
X8.3019Y-2.3093
X8.3334Y-2.4254
X8.3978Y-1.8934
X8.4003Y-2.1223
X8.4003Y-2.2502
X8.4048Y-1.9988
X8.4102Y-3.264
X8.4298Y-2.5258
X8.4594Y-1.7581
X8.4594Y-2.2896
X8.4594Y-2.3979
X8.4633Y-3.264
X8.483Y-1.8979
X8.4968Y-3.2778
X8.4992Y-3.466
X8.5944Y-1.6514
X8.5968Y-1.7975
X8.6346Y-1.8762
X8.636Y-2.2299
X8.6397Y-2.9687
X8.6405Y-1.7089
X8.6574Y-2.1797
X8.6783Y-2.0903
X8.7054Y-1.9254
X8.732Y-2.099
X8.7546Y-2.7522
X8.911Y-2.0042
X8.9121Y-1.7983
X8.9613Y-1.7544
X8.983Y-1.7315
X8.983Y-1.7975
X8.9869Y-2.7896
X8.9909Y-2.2286
X8.9912Y-1.8861
X9.027Y-2.0683
X9.0551Y-2.2971
X9.0846Y-2.6083
X9.1895Y-1.6702
X9.2387Y-1.7107
X9.285Y-3.5396
X9.364Y-2.0522
X9.3747Y-2.8369
X9.4338Y-1.9353
X9.483Y-5.2128
X9.4931Y-2.7618
X9.514Y-2.3793
X9.5214Y-3.0564
X10.052Y-1.9487
X10.2468Y-4.9195
X10.25Y-2.0873
T4
X9.5334Y-3.365
X9.5925Y-3.0675
T5
X7.285Y-6.005
X7.2896Y-3.2345
X7.2901Y-5.7443
X7.2933Y-3.4983
X7.2933Y-5.5807
X7.3078Y-2.7502
X7.3117Y-5.6557
X7.325Y-4.06
X7.3491Y-3.2246
X7.3493Y-3.0782
X7.3511Y-3.1676
X7.3666Y-5.2173
X7.3826Y-3.6203
X7.414Y-1.658
X7.4318Y-5.6302
X7.4451Y-5.7429
X7.485Y-2.575
X7.502Y-1.88
X7.512Y-1.729
X7.5145Y-5.8329
X7.526Y-4.977
X7.5342Y-5.0691
X7.5394Y-5.5807
X7.544Y-5.2404
X7.5689Y-2.1063
X7.5893Y-4.3585
X7.602Y-1.888
X7.6424Y-5.2089
X7.6424Y-5.8329
X7.67Y-1.7699
X7.67Y-5.3644
X7.686Y-2.264
X7.7195Y-2.4254
X7.798Y-2.515
X7.8196Y-5.951
X7.855Y-2.8172
X7.896Y-1.681
X7.9082Y-2.6439
X7.9771Y-2.4372
X8.1208Y-2.5987
X8.1247Y-2.516
X8.1562Y-2.9491
X8.4298Y-2.6004
X8.4495Y-2.6794
X8.4692Y-1.7187
X8.4889Y-2.8211
X8.5499Y-2.6046
X8.6661Y-2.0337
X8.7291Y-2.9333
X8.7448Y-2.5061
X8.7743Y-2.8211
X8.7952Y-2.2207
X8.805Y-2.082
X8.844Y-1.849
X8.8728Y-2.2798
X8.878Y-2.3548
X8.8976Y-2.5829
X9.0401Y-1.9254
X9.0791Y-2.2302
X9.0873Y-1.8252
X9.0893Y-2.1617
X9.16Y-2.333
X9.176Y-2.281
X9.2074Y-1.955
X9.2172Y-1.7384
X9.2428Y-1.8701
X9.296Y-2.1026
X9.3012Y-1.9291
X9.3759Y-2.3668
X9.412Y-5.468
X9.4928Y-2.0337
X9.5669Y-1.9882
X9.5814Y-2.4963
X9.6109Y-2.0928
X9.6405Y-2.1321
X9.6503Y-2.0133
X9.6752Y-3.4055
X9.6752Y-3.7402
X9.685Y-3.3366
X9.753Y-2.552
X9.7539Y-3.6909
X9.7783Y-2.3979
X9.8964Y-1.9778
X9.9213Y-3.1988
X9.97Y-2.601
X10.0794Y-2.1562
X10.0834Y-2.1026
X10.095Y-2.285
X10.2015Y-4.2246
X10.4645Y-2.1956
X10.5539Y-5.1065
X10.619Y-1.739
X10.6207Y-2.4023
X10.6464Y-2.3349
X10.6601Y-1.9987
X10.7527Y-5.1341
T6
X7.3015Y-5.9069
X7.3015Y-5.96
X7.335Y-5.9069
X7.335Y-5.96
X7.3685Y-5.9069
X7.3685Y-5.96
X7.4019Y-5.9069
X7.4019Y-5.96
X7.4354Y-5.9069
X7.4354Y-5.96
X7.4689Y-5.9069
X7.4689Y-5.96
X7.5023Y-5.9069
X7.5023Y-5.96
X7.5358Y-5.9069
X7.5358Y-5.96
T7
X7.2441Y-1.1909
X7.27Y-1.1283
X7.27Y-1.2536
X7.3327Y-1.1024
X7.3327Y-1.2795
X7.3953Y-1.1283
X7.3953Y-1.2536
X7.4213Y-1.1909
X8.3038Y-3.6544
X8.3298Y-3.5917
X8.3298Y-3.717
X8.3924Y-3.5658
X8.3924Y-3.743
X8.4551Y-3.5917
X8.4551Y-3.717
X8.481Y-3.6544
X9.4417Y-4.7923
X9.4677Y-4.7296
X9.4677Y-4.8549
X9.5303Y-4.7037
X9.5303Y-4.8809
X9.593Y-4.7296
X9.593Y-4.8549
X9.6189Y-4.7923
X10.5843Y-2.9894
X10.6102Y-2.9268
X10.6102Y-3.0521
X10.6335Y-1.3359
X10.6594Y-1.2732
X10.6594Y-1.3985
X10.6729Y-2.9008
X10.6729Y-3.078
X10.7221Y-1.2473
X10.7221Y-1.4245
X10.7355Y-2.9268
X10.7355Y-3.0521
X10.7614Y-2.9894
X10.7847Y-1.2732
X10.7847Y-1.3985
X10.8107Y-1.3359
T9
X7.6467Y-5.6693
X7.7467Y-5.6693
X8.4052Y-5.64
X8.5052Y-5.64
X9.335Y-1.345
X9.335Y-1.445
X9.335Y-1.545
X9.335Y-1.645
X9.335Y-1.745
X9.335Y-1.845
X9.435Y-1.345
X9.435Y-1.445
X9.435Y-1.545
X9.435Y-1.645
X9.435Y-1.745
X9.435Y-1.845
X9.715Y-2.8465
X9.715Y-2.9465
X9.865Y-2.8465
X9.865Y-2.9465
X10.015Y-2.8465
X10.015Y-2.9465
X10.1258Y-1.0407
X10.161Y-2.845
X10.161Y-2.945
X10.2242Y-1.0407
X10.311Y-2.845
X10.311Y-2.945
X10.461Y-2.8448
X10.461Y-2.9448
X10.48Y-1.04
X10.5094Y-4.8161
X10.515Y-1.51
X10.515Y-1.61
X10.515Y-1.71
X10.515Y-1.81
X10.5784Y-1.04
X10.6094Y-4.8161
X10.7094Y-4.8161
T10
X8.8039Y-5.2128
X8.8039Y-5.4097
X9.0007Y-5.2128
X9.0007Y-5.4097
X9.1976Y-5.2128
X9.1976Y-5.4097
T11
X7.3327Y-1.1909
X8.3924Y-3.6544
X9.5303Y-4.7923
X10.6729Y-2.9894
X10.7221Y-1.3359
T8
G00X7.2486Y-5.9009
M15
G01X7.2486Y-5.9521
M16
G05
G00X7.2486Y-6.0722
M15
G01X7.2486Y-6.1076
M16
G05
G00X7.5887Y-5.9009
M15
G01X7.5887Y-5.9521
M16
G05
G00X7.5887Y-6.0722
M15
G01X7.5887Y-6.1076
M16
G05
T9
G00X10.5755Y-5.2404
M15
G01X10.4771Y-5.2404
M16
G05
G00X10.5657Y-5.4766
M15
G01X10.4869Y-5.4766
M16
G05
G00X10.7113Y-5.3191
M15
G01X10.7113Y-5.3979
M16
G05
M30
