%TF.GenerationSoftware,KiCad,Pcbnew,8.0.7*%
%TF.CreationDate,2025-07-24T12:10:59+02:00*%
%TF.ProjectId,Soundwalk,536f756e-6477-4616-9c6b-2e6b69636164,rev?*%
%TF.SameCoordinates,Original*%
%TF.FileFunction,Soldermask,Bot*%
%TF.FilePolarity,Negative*%
%FSLAX46Y46*%
G04 Gerber Fmt 4.6, Leading zero omitted, Abs format (unit mm)*
G04 Created by KiCad (PCBNEW 8.0.7) date 2025-07-24 12:10:59*
%MOMM*%
%LPD*%
G01*
G04 APERTURE LIST*
G04 Aperture macros list*
%AMRoundRect*
0 Rectangle with rounded corners*
0 $1 Rounding radius*
0 $2 $3 $4 $5 $6 $7 $8 $9 X,Y pos of 4 corners*
0 Add a 4 corners polygon primitive as box body*
4,1,4,$2,$3,$4,$5,$6,$7,$8,$9,$2,$3,0*
0 Add four circle primitives for the rounded corners*
1,1,$1+$1,$2,$3*
1,1,$1+$1,$4,$5*
1,1,$1+$1,$6,$7*
1,1,$1+$1,$8,$9*
0 Add four rect primitives between the rounded corners*
20,1,$1+$1,$2,$3,$4,$5,0*
20,1,$1+$1,$4,$5,$6,$7,0*
20,1,$1+$1,$6,$7,$8,$9,0*
20,1,$1+$1,$8,$9,$2,$3,0*%
G04 Aperture macros list end*
%ADD10C,0.387500*%
%ADD11R,1.700000X1.700000*%
%ADD12O,1.700000X1.700000*%
%ADD13RoundRect,0.250000X0.600000X0.750000X-0.600000X0.750000X-0.600000X-0.750000X0.600000X-0.750000X0*%
%ADD14O,1.700000X2.000000*%
%ADD15C,0.800000*%
%ADD16C,6.000000*%
%ADD17O,5.204000X2.704000*%
%ADD18O,4.704000X2.454000*%
%ADD19O,2.454000X4.704000*%
%ADD20O,1.452400X3.352400*%
%ADD21O,1.452400X2.652400*%
%ADD22C,1.800000*%
%ADD23R,1.800000X1.800000*%
%ADD24C,0.600000*%
%ADD25R,1.500000X3.000000*%
%ADD26O,1.500000X3.000000*%
G04 APERTURE END LIST*
D10*
%TO.C,U1*%
X185652750Y-150034000D02*
G75*
G02*
X185265250Y-150034000I-193750J0D01*
G01*
X185265250Y-150034000D02*
G75*
G02*
X185652750Y-150034000I193750J0D01*
G01*
X185652750Y-151384000D02*
G75*
G02*
X185265250Y-151384000I-193750J0D01*
G01*
X185265250Y-151384000D02*
G75*
G02*
X185652750Y-151384000I193750J0D01*
G01*
X186502750Y-150034000D02*
G75*
G02*
X186115250Y-150034000I-193750J0D01*
G01*
X186115250Y-150034000D02*
G75*
G02*
X186502750Y-150034000I193750J0D01*
G01*
X186502750Y-151384000D02*
G75*
G02*
X186115250Y-151384000I-193750J0D01*
G01*
X186115250Y-151384000D02*
G75*
G02*
X186502750Y-151384000I193750J0D01*
G01*
X187352750Y-150034000D02*
G75*
G02*
X186965250Y-150034000I-193750J0D01*
G01*
X186965250Y-150034000D02*
G75*
G02*
X187352750Y-150034000I193750J0D01*
G01*
X187352750Y-151384000D02*
G75*
G02*
X186965250Y-151384000I-193750J0D01*
G01*
X186965250Y-151384000D02*
G75*
G02*
X187352750Y-151384000I193750J0D01*
G01*
X188202750Y-150034000D02*
G75*
G02*
X187815250Y-150034000I-193750J0D01*
G01*
X187815250Y-150034000D02*
G75*
G02*
X188202750Y-150034000I193750J0D01*
G01*
X188202750Y-151384000D02*
G75*
G02*
X187815250Y-151384000I-193750J0D01*
G01*
X187815250Y-151384000D02*
G75*
G02*
X188202750Y-151384000I193750J0D01*
G01*
X189052750Y-150034000D02*
G75*
G02*
X188665250Y-150034000I-193750J0D01*
G01*
X188665250Y-150034000D02*
G75*
G02*
X189052750Y-150034000I193750J0D01*
G01*
X189052750Y-151384000D02*
G75*
G02*
X188665250Y-151384000I-193750J0D01*
G01*
X188665250Y-151384000D02*
G75*
G02*
X189052750Y-151384000I193750J0D01*
G01*
X189902750Y-150034000D02*
G75*
G02*
X189515250Y-150034000I-193750J0D01*
G01*
X189515250Y-150034000D02*
G75*
G02*
X189902750Y-150034000I193750J0D01*
G01*
X189902750Y-151384000D02*
G75*
G02*
X189515250Y-151384000I-193750J0D01*
G01*
X189515250Y-151384000D02*
G75*
G02*
X189902750Y-151384000I193750J0D01*
G01*
X190752750Y-150034000D02*
G75*
G02*
X190365250Y-150034000I-193750J0D01*
G01*
X190365250Y-150034000D02*
G75*
G02*
X190752750Y-150034000I193750J0D01*
G01*
X190752750Y-151384000D02*
G75*
G02*
X190365250Y-151384000I-193750J0D01*
G01*
X190365250Y-151384000D02*
G75*
G02*
X190752750Y-151384000I193750J0D01*
G01*
X191602750Y-150034000D02*
G75*
G02*
X191215250Y-150034000I-193750J0D01*
G01*
X191215250Y-150034000D02*
G75*
G02*
X191602750Y-150034000I193750J0D01*
G01*
X191602750Y-151384000D02*
G75*
G02*
X191215250Y-151384000I-193750J0D01*
G01*
X191215250Y-151384000D02*
G75*
G02*
X191602750Y-151384000I193750J0D01*
G01*
%TD*%
D11*
%TO.C,JP7*%
X258089000Y-74803000D03*
D12*
X258089000Y-72263000D03*
%TD*%
D11*
%TO.C,JP5*%
X254381000Y-74841000D03*
D12*
X254381000Y-72301000D03*
%TD*%
D11*
%TO.C,JP2*%
X194225000Y-144000000D03*
D12*
X196765000Y-144000000D03*
%TD*%
D11*
%TO.C,JP8*%
X265709000Y-74798000D03*
D12*
X265709000Y-72258000D03*
%TD*%
D13*
%TO.C,J4*%
X259695000Y-26433000D03*
D14*
X257195000Y-26433000D03*
%TD*%
D15*
%TO.C,H5*%
X184000000Y-30250000D03*
X184659010Y-28659010D03*
X184659010Y-31840990D03*
X186250000Y-28000000D03*
D16*
X186250000Y-30250000D03*
D15*
X186250000Y-32500000D03*
X187840990Y-28659010D03*
X187840990Y-31840990D03*
X188500000Y-30250000D03*
%TD*%
%TO.C,H4*%
X210917657Y-92821057D03*
X211576667Y-91230067D03*
X211576667Y-94412047D03*
X213167657Y-90571057D03*
D16*
X213167657Y-92821057D03*
D15*
X213167657Y-95071057D03*
X214758647Y-91230067D03*
X214758647Y-94412047D03*
X215417657Y-92821057D03*
%TD*%
D17*
%TO.C,J3*%
X267368000Y-133106000D03*
D18*
X267368000Y-139106000D03*
D19*
X272068000Y-136106000D03*
%TD*%
D20*
%TO.C,U1*%
X184114000Y-150534000D03*
D21*
X184114000Y-154684000D03*
D20*
X192754000Y-150534000D03*
D21*
X192754000Y-154684000D03*
%TD*%
D22*
%TO.C,U10*%
X266939000Y-122329000D03*
X269479000Y-122329000D03*
D23*
X272019000Y-122329000D03*
%TD*%
D24*
%TO.C,U2*%
X205024800Y-49688400D03*
X205024800Y-51088400D03*
X205724800Y-48988400D03*
X205724800Y-50388400D03*
X205724800Y-51788400D03*
X206424800Y-49688400D03*
X206424800Y-51088400D03*
X207124800Y-48988400D03*
X207124800Y-50388400D03*
X207124800Y-51788400D03*
X207824800Y-49688400D03*
X207824800Y-51088400D03*
%TD*%
D15*
%TO.C,H7*%
X270090810Y-33931410D03*
X270749820Y-32340420D03*
X270749820Y-35522400D03*
X272340810Y-31681410D03*
D16*
X272340810Y-33931410D03*
D15*
X272340810Y-36181410D03*
X273931800Y-32340420D03*
X273931800Y-35522400D03*
X274590810Y-33931410D03*
%TD*%
D11*
%TO.C,JP1*%
X216032000Y-143256000D03*
D12*
X213492000Y-143256000D03*
%TD*%
D15*
%TO.C,H9*%
X268840810Y-75931410D03*
X269499820Y-74340420D03*
X269499820Y-77522400D03*
X271090810Y-73681410D03*
D16*
X271090810Y-75931410D03*
D15*
X271090810Y-78181410D03*
X272681800Y-74340420D03*
X272681800Y-77522400D03*
X273340810Y-75931410D03*
%TD*%
D11*
%TO.C,JP6*%
X261899000Y-74803000D03*
D12*
X261899000Y-72263000D03*
%TD*%
D11*
%TO.C,J1*%
X237109000Y-34163000D03*
D12*
X239649000Y-34163000D03*
X237109000Y-36703000D03*
X239649000Y-36703000D03*
X237109000Y-39243000D03*
X239649000Y-39243000D03*
X237109000Y-41783000D03*
X239649000Y-41783000D03*
X237109000Y-44323000D03*
X239649000Y-44323000D03*
X237109000Y-46863000D03*
X239649000Y-46863000D03*
%TD*%
D11*
%TO.C,JP3*%
X250571000Y-74841000D03*
D12*
X250571000Y-72301000D03*
%TD*%
D25*
%TO.C,J2*%
X223618000Y-132406000D03*
X223618000Y-137406000D03*
D26*
X228618000Y-132406000D03*
X228618000Y-137406000D03*
X233618000Y-132406000D03*
X233618000Y-137406000D03*
%TD*%
D11*
%TO.C,J5*%
X267081000Y-45974000D03*
D12*
X267081000Y-43434000D03*
X267081000Y-40894000D03*
X267081000Y-38354000D03*
%TD*%
D13*
%TO.C,J6*%
X268692000Y-26416000D03*
D14*
X266192000Y-26416000D03*
%TD*%
D11*
%TO.C,JP4*%
X246761000Y-74841000D03*
D12*
X246761000Y-72301000D03*
%TD*%
D15*
%TO.C,H1*%
X239820343Y-121723743D03*
X240479353Y-120132753D03*
X240479353Y-123314733D03*
X242070343Y-119473743D03*
D16*
X242070343Y-121723743D03*
D15*
X242070343Y-123973743D03*
X243661333Y-120132753D03*
X243661333Y-123314733D03*
X244320343Y-121723743D03*
%TD*%
M02*
