%TF.GenerationSoftware,KiCad,Pcbnew,8.0.7*%
%TF.CreationDate,2025-07-24T13:25:47+02:00*%
%TF.ProjectId,Soundwalk,536f756e-6477-4616-9c6b-2e6b69636164,rev?*%
%TF.SameCoordinates,Original*%
%TF.FileFunction,Profile,NP*%
%FSLAX46Y46*%
G04 Gerber Fmt 4.6, Leading zero omitted, Abs format (unit mm)*
G04 Created by KiCad (PCBNEW 8.0.7) date 2025-07-24 13:25:47*
%MOMM*%
%LPD*%
G01*
G04 APERTURE LIST*
%TA.AperFunction,Profile*%
%ADD10C,0.100000*%
%TD*%
%TA.AperFunction,Profile*%
%ADD11C,0.050000*%
%TD*%
G04 APERTURE END LIST*
D10*
X275956800Y-58152400D02*
G75*
G02*
X275956800Y-50152400I0J4000000D01*
G01*
X242056800Y-35522400D02*
X262806800Y-35522400D01*
X262806800Y-46772400D01*
X242056800Y-46772400D01*
X242056800Y-35522400D01*
X275956800Y-44272400D02*
G75*
G02*
X275956800Y-38272400I0J3000000D01*
G01*
X182806800Y-38272400D02*
G75*
G02*
X182806800Y-44272400I0J-3000000D01*
G01*
X275956800Y-157742159D02*
X182806800Y-157731564D01*
X275956800Y-78652400D02*
X275956800Y-58152400D01*
X182806800Y-20272400D02*
X275956800Y-20272400D01*
X182806800Y-50152400D02*
X182806800Y-49462400D01*
X275956800Y-20272400D02*
X275956800Y-38272400D01*
D11*
X275971000Y-95187000D02*
X275956800Y-78652400D01*
D10*
X182806800Y-50152400D02*
G75*
G02*
X182806800Y-58152400I0J-4000000D01*
G01*
X244119000Y-107272400D02*
G75*
G02*
X211119000Y-107272400I-16500000J0D01*
G01*
X211119000Y-107272400D02*
G75*
G02*
X244119000Y-107272400I16500000J0D01*
G01*
D11*
X182806800Y-95152400D02*
X182806800Y-58152400D01*
X182806800Y-95152400D02*
G75*
G02*
X182806800Y-103152400I0J-4000000D01*
G01*
X275971000Y-103187000D02*
G75*
G02*
X275971000Y-95187000I0J4000000D01*
G01*
D10*
X182806800Y-44272400D02*
X182806800Y-49462400D01*
D11*
X275971000Y-103187000D02*
X275956800Y-157742159D01*
X182806800Y-103152400D02*
X182806800Y-157731564D01*
D10*
X182806800Y-38272400D02*
X182806800Y-20272400D01*
X275956800Y-50152400D02*
X275956800Y-44272400D01*
M02*
